<mxfile host="app.diagrams.net" agent="Mozilla/5.0 (Windows NT 10.0; Win64; x64) AppleWebKit/537.36 (KHTML, like Gecko) Chrome/131.0.0.0 Safari/537.36" version="25.0.3">
  <diagram name="Page-1" id="2YBvvXClWsGukQMizWep">
    <mxGraphModel dx="2641" dy="1601" grid="1" gridSize="10" guides="1" tooltips="1" connect="1" arrows="1" fold="1" page="1" pageScale="1" pageWidth="850" pageHeight="1100" math="0" shadow="0">
      <root>
        <mxCell id="0" />
        <mxCell id="1" parent="0" />
        <mxCell id="1bQJ3U5nNzhwJL1X4cVn-1" value="Khách hàng" style="shape=umlActor;verticalLabelPosition=bottom;verticalAlign=top;html=1;" vertex="1" parent="1">
          <mxGeometry x="70" y="250" width="30" height="60" as="geometry" />
        </mxCell>
        <mxCell id="1bQJ3U5nNzhwJL1X4cVn-2" value="Quản trị viên" style="shape=umlActor;verticalLabelPosition=bottom;verticalAlign=top;html=1;" vertex="1" parent="1">
          <mxGeometry x="-680" y="285" width="30" height="60" as="geometry" />
        </mxCell>
        <mxCell id="1bQJ3U5nNzhwJL1X4cVn-4" value="Xem sản phẩm" style="ellipse;whiteSpace=wrap;html=1;" vertex="1" parent="1">
          <mxGeometry x="290" y="170" width="140" height="70" as="geometry" />
        </mxCell>
        <mxCell id="1bQJ3U5nNzhwJL1X4cVn-5" value="Thêm sản phẩm vào giỏ hàng" style="ellipse;whiteSpace=wrap;html=1;" vertex="1" parent="1">
          <mxGeometry x="300" y="260" width="140" height="70" as="geometry" />
        </mxCell>
        <mxCell id="1bQJ3U5nNzhwJL1X4cVn-6" value="Thanh toán" style="ellipse;whiteSpace=wrap;html=1;" vertex="1" parent="1">
          <mxGeometry x="280" y="360" width="140" height="70" as="geometry" />
        </mxCell>
        <mxCell id="1bQJ3U5nNzhwJL1X4cVn-7" value="Tạo đơn hàng" style="ellipse;whiteSpace=wrap;html=1;" vertex="1" parent="1">
          <mxGeometry x="210" y="450" width="140" height="70" as="geometry" />
        </mxCell>
        <mxCell id="1bQJ3U5nNzhwJL1X4cVn-9" value="Quản lý tài khoản" style="ellipse;whiteSpace=wrap;html=1;" vertex="1" parent="1">
          <mxGeometry x="-940" y="300" width="140" height="70" as="geometry" />
        </mxCell>
        <mxCell id="1bQJ3U5nNzhwJL1X4cVn-10" value="Quản lý sản phẩm" style="ellipse;whiteSpace=wrap;html=1;" vertex="1" parent="1">
          <mxGeometry x="-740" y="460" width="140" height="70" as="geometry" />
        </mxCell>
        <mxCell id="1bQJ3U5nNzhwJL1X4cVn-11" value="Quản lý đơn hàng" style="ellipse;whiteSpace=wrap;html=1;" vertex="1" parent="1">
          <mxGeometry x="-950" y="450" width="140" height="70" as="geometry" />
        </mxCell>
        <mxCell id="1bQJ3U5nNzhwJL1X4cVn-12" value="" style="endArrow=none;html=1;rounded=0;" edge="1" parent="1" source="1bQJ3U5nNzhwJL1X4cVn-1" target="1bQJ3U5nNzhwJL1X4cVn-7">
          <mxGeometry relative="1" as="geometry">
            <mxPoint x="140" y="540" as="sourcePoint" />
            <mxPoint x="300" y="540" as="targetPoint" />
          </mxGeometry>
        </mxCell>
        <mxCell id="1bQJ3U5nNzhwJL1X4cVn-13" value="" style="endArrow=none;html=1;rounded=0;" edge="1" parent="1" source="1bQJ3U5nNzhwJL1X4cVn-1" target="1bQJ3U5nNzhwJL1X4cVn-6">
          <mxGeometry relative="1" as="geometry">
            <mxPoint x="106" y="320" as="sourcePoint" />
            <mxPoint x="198" y="581" as="targetPoint" />
          </mxGeometry>
        </mxCell>
        <mxCell id="1bQJ3U5nNzhwJL1X4cVn-14" value="" style="endArrow=none;html=1;rounded=0;" edge="1" parent="1" source="1bQJ3U5nNzhwJL1X4cVn-1" target="1bQJ3U5nNzhwJL1X4cVn-5">
          <mxGeometry relative="1" as="geometry">
            <mxPoint x="110" y="307" as="sourcePoint" />
            <mxPoint x="241" y="453" as="targetPoint" />
          </mxGeometry>
        </mxCell>
        <mxCell id="1bQJ3U5nNzhwJL1X4cVn-15" value="" style="endArrow=none;html=1;rounded=0;" edge="1" parent="1" source="1bQJ3U5nNzhwJL1X4cVn-1" target="1bQJ3U5nNzhwJL1X4cVn-4">
          <mxGeometry relative="1" as="geometry">
            <mxPoint x="110" y="298" as="sourcePoint" />
            <mxPoint x="223" y="359" as="targetPoint" />
          </mxGeometry>
        </mxCell>
        <mxCell id="1bQJ3U5nNzhwJL1X4cVn-16" value="" style="endArrow=none;html=1;rounded=0;" edge="1" parent="1" source="1bQJ3U5nNzhwJL1X4cVn-2">
          <mxGeometry relative="1" as="geometry">
            <mxPoint x="-650" y="370" as="sourcePoint" />
            <mxPoint x="-846.7604848458618" y="237.7241832974978" as="targetPoint" />
          </mxGeometry>
        </mxCell>
        <mxCell id="1bQJ3U5nNzhwJL1X4cVn-18" value="" style="endArrow=none;html=1;rounded=0;" edge="1" parent="1" source="1bQJ3U5nNzhwJL1X4cVn-2" target="1bQJ3U5nNzhwJL1X4cVn-9">
          <mxGeometry relative="1" as="geometry">
            <mxPoint x="-670" y="317" as="sourcePoint" />
            <mxPoint x="-876" y="210" as="targetPoint" />
          </mxGeometry>
        </mxCell>
        <mxCell id="1bQJ3U5nNzhwJL1X4cVn-19" value="" style="endArrow=none;html=1;rounded=0;" edge="1" parent="1" source="1bQJ3U5nNzhwJL1X4cVn-2" target="1bQJ3U5nNzhwJL1X4cVn-10">
          <mxGeometry relative="1" as="geometry">
            <mxPoint x="-670" y="325" as="sourcePoint" />
            <mxPoint x="-750" y="322" as="targetPoint" />
          </mxGeometry>
        </mxCell>
        <mxCell id="1bQJ3U5nNzhwJL1X4cVn-20" value="" style="endArrow=none;html=1;rounded=0;" edge="1" parent="1" source="1bQJ3U5nNzhwJL1X4cVn-2" target="1bQJ3U5nNzhwJL1X4cVn-11">
          <mxGeometry relative="1" as="geometry">
            <mxPoint x="-670" y="333" as="sourcePoint" />
            <mxPoint x="-773" y="389" as="targetPoint" />
          </mxGeometry>
        </mxCell>
        <mxCell id="1bQJ3U5nNzhwJL1X4cVn-26" value="Xoá tài khoản" style="ellipse;whiteSpace=wrap;html=1;" vertex="1" parent="1">
          <mxGeometry x="-1160" y="250" width="140" height="70" as="geometry" />
        </mxCell>
        <mxCell id="1bQJ3U5nNzhwJL1X4cVn-27" value="Xem tài khoản" style="ellipse;whiteSpace=wrap;html=1;" vertex="1" parent="1">
          <mxGeometry x="-1150" y="360" width="140" height="70" as="geometry" />
        </mxCell>
        <mxCell id="1bQJ3U5nNzhwJL1X4cVn-28" value="Thêm sản phẩm" style="ellipse;whiteSpace=wrap;html=1;" vertex="1" parent="1">
          <mxGeometry x="-520" y="530" width="140" height="70" as="geometry" />
        </mxCell>
        <mxCell id="1bQJ3U5nNzhwJL1X4cVn-29" value="Xoá sản phẩm" style="ellipse;whiteSpace=wrap;html=1;" vertex="1" parent="1">
          <mxGeometry x="-710" y="660" width="140" height="70" as="geometry" />
        </mxCell>
        <mxCell id="1bQJ3U5nNzhwJL1X4cVn-30" value="Sửa sản phẩm" style="ellipse;whiteSpace=wrap;html=1;" vertex="1" parent="1">
          <mxGeometry x="-840" y="600" width="140" height="70" as="geometry" />
        </mxCell>
        <mxCell id="1bQJ3U5nNzhwJL1X4cVn-31" value="Xem sản phẩm" style="ellipse;whiteSpace=wrap;html=1;" vertex="1" parent="1">
          <mxGeometry x="-590" y="610" width="140" height="70" as="geometry" />
        </mxCell>
        <mxCell id="1bQJ3U5nNzhwJL1X4cVn-32" value="Xem đơn hàng" style="ellipse;whiteSpace=wrap;html=1;" vertex="1" parent="1">
          <mxGeometry x="-1010" y="630" width="140" height="70" as="geometry" />
        </mxCell>
        <mxCell id="1bQJ3U5nNzhwJL1X4cVn-33" value="Huỷ đơn hàng" style="ellipse;whiteSpace=wrap;html=1;" vertex="1" parent="1">
          <mxGeometry x="-1150" y="580" width="140" height="70" as="geometry" />
        </mxCell>
        <mxCell id="1bQJ3U5nNzhwJL1X4cVn-35" value="Xác nhận đơn hàng" style="ellipse;whiteSpace=wrap;html=1;" vertex="1" parent="1">
          <mxGeometry x="-1180" y="460" width="140" height="70" as="geometry" />
        </mxCell>
        <mxCell id="1bQJ3U5nNzhwJL1X4cVn-36" value="&amp;lt;&amp;lt;extend&amp;gt;&amp;gt;" style="endArrow=open;endSize=12;dashed=1;html=1;rounded=0;" edge="1" parent="1" source="1bQJ3U5nNzhwJL1X4cVn-26" target="1bQJ3U5nNzhwJL1X4cVn-9">
          <mxGeometry x="0.0022" width="160" relative="1" as="geometry">
            <mxPoint x="-1160" y="225" as="sourcePoint" />
            <mxPoint x="-960" y="225" as="targetPoint" />
            <mxPoint as="offset" />
          </mxGeometry>
        </mxCell>
        <mxCell id="1bQJ3U5nNzhwJL1X4cVn-37" value="&amp;lt;&amp;lt;extend&amp;gt;&amp;gt;" style="endArrow=open;endSize=12;dashed=1;html=1;rounded=0;" edge="1" parent="1" source="1bQJ3U5nNzhwJL1X4cVn-27" target="1bQJ3U5nNzhwJL1X4cVn-9">
          <mxGeometry x="0.0022" width="160" relative="1" as="geometry">
            <mxPoint x="-1160" y="225" as="sourcePoint" />
            <mxPoint x="-960" y="225" as="targetPoint" />
            <mxPoint as="offset" />
          </mxGeometry>
        </mxCell>
        <mxCell id="1bQJ3U5nNzhwJL1X4cVn-38" value="&amp;lt;&amp;lt;extend&amp;gt;&amp;gt;" style="endArrow=open;endSize=12;dashed=1;html=1;rounded=0;" edge="1" parent="1" source="1bQJ3U5nNzhwJL1X4cVn-33" target="1bQJ3U5nNzhwJL1X4cVn-11">
          <mxGeometry x="0.0022" width="160" relative="1" as="geometry">
            <mxPoint x="-1009" y="388" as="sourcePoint" />
            <mxPoint x="-921" y="362" as="targetPoint" />
            <mxPoint as="offset" />
          </mxGeometry>
        </mxCell>
        <mxCell id="1bQJ3U5nNzhwJL1X4cVn-39" value="&amp;lt;&amp;lt;extend&amp;gt;&amp;gt;" style="endArrow=open;endSize=12;dashed=1;html=1;rounded=0;" edge="1" parent="1" source="1bQJ3U5nNzhwJL1X4cVn-35" target="1bQJ3U5nNzhwJL1X4cVn-11">
          <mxGeometry x="0.0022" width="160" relative="1" as="geometry">
            <mxPoint x="-1027" y="597" as="sourcePoint" />
            <mxPoint x="-913" y="523" as="targetPoint" />
            <mxPoint as="offset" />
          </mxGeometry>
        </mxCell>
        <mxCell id="1bQJ3U5nNzhwJL1X4cVn-40" value="&amp;lt;&amp;lt;extend&amp;gt;&amp;gt;" style="endArrow=open;endSize=12;dashed=1;html=1;rounded=0;" edge="1" parent="1" source="1bQJ3U5nNzhwJL1X4cVn-32" target="1bQJ3U5nNzhwJL1X4cVn-11">
          <mxGeometry x="0.0022" width="160" relative="1" as="geometry">
            <mxPoint x="-918.5162344988632" y="667.0078635981856" as="sourcePoint" />
            <mxPoint x="-913" y="540" as="targetPoint" />
            <mxPoint as="offset" />
          </mxGeometry>
        </mxCell>
        <mxCell id="1bQJ3U5nNzhwJL1X4cVn-41" value="&amp;lt;&amp;lt;extend&amp;gt;&amp;gt;" style="endArrow=open;endSize=12;dashed=1;html=1;rounded=0;" edge="1" parent="1" source="1bQJ3U5nNzhwJL1X4cVn-30" target="1bQJ3U5nNzhwJL1X4cVn-10">
          <mxGeometry x="0.0022" width="160" relative="1" as="geometry">
            <mxPoint x="-653.087857816736" y="702.3250884080412" as="sourcePoint" />
            <mxPoint x="-770" y="550" as="targetPoint" />
            <mxPoint as="offset" />
          </mxGeometry>
        </mxCell>
        <mxCell id="1bQJ3U5nNzhwJL1X4cVn-42" value="&amp;lt;&amp;lt;extend&amp;gt;&amp;gt;" style="endArrow=open;endSize=12;dashed=1;html=1;rounded=0;" edge="1" parent="1" source="1bQJ3U5nNzhwJL1X4cVn-29" target="1bQJ3U5nNzhwJL1X4cVn-10">
          <mxGeometry x="0.0022" width="160" relative="1" as="geometry">
            <mxPoint x="-737" y="612" as="sourcePoint" />
            <mxPoint x="-684" y="538" as="targetPoint" />
            <mxPoint as="offset" />
          </mxGeometry>
        </mxCell>
        <mxCell id="1bQJ3U5nNzhwJL1X4cVn-43" value="&amp;lt;&amp;lt;extend&amp;gt;&amp;gt;" style="endArrow=open;endSize=12;dashed=1;html=1;rounded=0;" edge="1" parent="1" source="1bQJ3U5nNzhwJL1X4cVn-31" target="1bQJ3U5nNzhwJL1X4cVn-10">
          <mxGeometry x="0.0022" width="160" relative="1" as="geometry">
            <mxPoint x="-635" y="670" as="sourcePoint" />
            <mxPoint x="-655" y="540" as="targetPoint" />
            <mxPoint as="offset" />
          </mxGeometry>
        </mxCell>
        <mxCell id="1bQJ3U5nNzhwJL1X4cVn-44" value="&amp;lt;&amp;lt;extend&amp;gt;&amp;gt;" style="endArrow=open;endSize=12;dashed=1;html=1;rounded=0;" edge="1" parent="1" source="1bQJ3U5nNzhwJL1X4cVn-28" target="1bQJ3U5nNzhwJL1X4cVn-10">
          <mxGeometry x="0.0022" width="160" relative="1" as="geometry">
            <mxPoint x="-541" y="624" as="sourcePoint" />
            <mxPoint x="-629" y="536" as="targetPoint" />
            <mxPoint as="offset" />
          </mxGeometry>
        </mxCell>
        <mxCell id="1bQJ3U5nNzhwJL1X4cVn-48" value="Đăng nhập" style="ellipse;whiteSpace=wrap;html=1;" vertex="1" parent="1">
          <mxGeometry x="260" y="60" width="140" height="70" as="geometry" />
        </mxCell>
        <mxCell id="1bQJ3U5nNzhwJL1X4cVn-49" value="Đặt lại mật khẩu" style="ellipse;whiteSpace=wrap;html=1;" vertex="1" parent="1">
          <mxGeometry x="450" y="-10" width="140" height="70" as="geometry" />
        </mxCell>
        <mxCell id="1bQJ3U5nNzhwJL1X4cVn-50" value="&amp;lt;&amp;lt;extend&amp;gt;&amp;gt;" style="endArrow=open;endSize=12;dashed=1;html=1;rounded=0;" edge="1" parent="1" source="1bQJ3U5nNzhwJL1X4cVn-49" target="1bQJ3U5nNzhwJL1X4cVn-48">
          <mxGeometry x="0.0022" width="160" relative="1" as="geometry">
            <mxPoint x="380" y="15" as="sourcePoint" />
            <mxPoint x="250" y="15" as="targetPoint" />
            <mxPoint as="offset" />
          </mxGeometry>
        </mxCell>
        <mxCell id="1bQJ3U5nNzhwJL1X4cVn-51" value="Đăng ký" style="ellipse;whiteSpace=wrap;html=1;" vertex="1" parent="1">
          <mxGeometry x="480" y="110" width="140" height="70" as="geometry" />
        </mxCell>
        <mxCell id="1bQJ3U5nNzhwJL1X4cVn-52" value="&amp;lt;&amp;lt;extend&amp;gt;&amp;gt;" style="endArrow=open;endSize=12;dashed=1;html=1;rounded=0;" edge="1" parent="1" source="1bQJ3U5nNzhwJL1X4cVn-51" target="1bQJ3U5nNzhwJL1X4cVn-48">
          <mxGeometry x="0.0022" width="160" relative="1" as="geometry">
            <mxPoint x="609" y="9" as="sourcePoint" />
            <mxPoint x="501" y="61" as="targetPoint" />
            <mxPoint as="offset" />
          </mxGeometry>
        </mxCell>
        <mxCell id="1bQJ3U5nNzhwJL1X4cVn-53" value="" style="endArrow=none;html=1;rounded=0;" edge="1" parent="1" source="1bQJ3U5nNzhwJL1X4cVn-1" target="1bQJ3U5nNzhwJL1X4cVn-48">
          <mxGeometry relative="1" as="geometry">
            <mxPoint x="110" y="286" as="sourcePoint" />
            <mxPoint x="329" y="222" as="targetPoint" />
          </mxGeometry>
        </mxCell>
      </root>
    </mxGraphModel>
  </diagram>
</mxfile>
